<?xml version="1.0" encoding="UTF-8" standalone="no"?>
<!DOCTYPE svg PUBLIC "-//W3C//DTD SVG 1.1//EN"
 "http://www.w3.org/Graphics/SVG/1.1/DTD/svg11.dtd">
<!-- Generated by graphviz version 2.34.0 (20131023.0135)
 -->
<!-- Title: controllers_diagram Pages: 1 -->
<svg width="712pt" height="472pt"
 viewBox="0.00 0.00 712.00 472.43" xmlns="http://www.w3.org/2000/svg" xmlns:xlink="http://www.w3.org/1999/xlink">
<g id="graph0" class="graph" transform="scale(1 1) rotate(0) translate(4 468.428)">
<title>controllers_diagram</title>
<polygon fill="white" stroke="white" points="-4,4 -4,-468.428 708,-468.428 708,4 -4,4"/>
<!-- _diagram_info -->
<g id="node1" class="node"><title>_diagram_info</title>
<text text-anchor="start" x="448" y="-63.6" font-family="Times,serif" font-size="13.00">Controllers diagram</text>
<text text-anchor="start" x="448" y="-49.6" font-family="Times,serif" font-size="13.00">Date: Nov 12 2013 &#45; 18:27</text>
<text text-anchor="start" x="448" y="-35.6" font-family="Times,serif" font-size="13.00">Migration version: 20131016013344</text>
<text text-anchor="start" x="448" y="-21.6" font-family="Times,serif" font-size="13.00">Generated by RailRoady 1.1.1</text>
<text text-anchor="start" x="448" y="-7.6" font-family="Times,serif" font-size="13.00">http://railroady.prestonlee.com</text>
</g>
<!-- PositionsController -->
<g id="node2" class="node"><title>PositionsController</title>
<ellipse fill="none" stroke="black" cx="103.341" cy="-211.359" rx="103.182" ry="18"/>
<text text-anchor="middle" x="103.341" y="-207.659" font-family="Times,serif" font-size="14.00">PositionsController</text>
</g>
<!-- SessionsController -->
<g id="node3" class="node"><title>SessionsController</title>
<ellipse fill="none" stroke="black" cx="527.682" cy="-134.088" rx="98.5829" ry="18"/>
<text text-anchor="middle" x="527.682" y="-130.388" font-family="Times,serif" font-size="14.00">SessionsController</text>
</g>
<!-- FarmersController -->
<g id="node4" class="node"><title>FarmersController</title>
<ellipse fill="none" stroke="black" cx="288.578" cy="-18" rx="93.6835" ry="18"/>
<text text-anchor="middle" x="288.578" y="-14.3" font-family="Times,serif" font-size="14.00">FarmersController</text>
</g>
<!-- SheepController -->
<g id="node5" class="node"><title>SheepController</title>
<ellipse fill="none" stroke="black" cx="231.95" cy="-446.428" rx="83.6854" ry="18"/>
<text text-anchor="middle" x="231.95" y="-442.728" font-family="Times,serif" font-size="14.00">SheepController</text>
</g>
<!-- MedicalsController -->
<g id="node6" class="node"><title>MedicalsController</title>
<ellipse fill="none" stroke="black" cx="493.101" cy="-396.329" rx="98.5829" ry="18"/>
<text text-anchor="middle" x="493.101" y="-392.629" font-family="Times,serif" font-size="14.00">MedicalsController</text>
</g>
<!-- ApplicationController -->
<g id="node7" class="node"><title>ApplicationController</title>
<ellipse fill="none" stroke="black" cx="327.772" cy="-241.18" rx="113.18" ry="18"/>
<text text-anchor="middle" x="327.772" y="-237.48" font-family="Times,serif" font-size="14.00">ApplicationController</text>
</g>
<!-- ApplicationController&#45;&gt;PositionsController -->
<g id="edge1" class="edge"><title>ApplicationController&#45;&gt;PositionsController</title>
<path fill="none" stroke="black" d="M240.68,-229.608C224.265,-227.427 207.095,-225.145 190.673,-222.963"/>
<polyline fill="none" stroke="black" points="185.602,-222.289 190.558,-222.948 "/>
</g>
<!-- ApplicationController&#45;&gt;SessionsController -->
<g id="edge2" class="edge"><title>ApplicationController&#45;&gt;SessionsController</title>
<path fill="none" stroke="black" d="M360.336,-223.735C396.271,-204.485 453.958,-173.582 491.338,-153.557"/>
<polyline fill="none" stroke="black" points="495.793,-151.171 491.386,-153.532 "/>
</g>
<!-- ApplicationController&#45;&gt;FarmersController -->
<g id="edge3" class="edge"><title>ApplicationController&#45;&gt;FarmersController</title>
<path fill="none" stroke="black" d="M324.564,-222.916C317.484,-182.6 300.527,-86.0419 292.685,-41.3845"/>
<polyline fill="none" stroke="black" points="291.775,-36.2031 292.64,-41.1277 "/>
</g>
<!-- ApplicationController&#45;&gt;SheepController -->
<g id="edge4" class="edge"><title>ApplicationController&#45;&gt;SheepController</title>
<path fill="none" stroke="black" d="M319.268,-259.394C301.795,-296.822 261.883,-382.312 242.672,-423.462"/>
<polyline fill="none" stroke="black" points="240.434,-428.255 242.55,-423.724 "/>
</g>
<!-- ApplicationController&#45;&gt;MedicalsController -->
<g id="edge5" class="edge"><title>ApplicationController&#45;&gt;MedicalsController</title>
<path fill="none" stroke="black" d="M346.737,-258.977C377.301,-287.66 437.344,-344.005 470.231,-374.867"/>
<polyline fill="none" stroke="black" points="474.103,-378.501 470.457,-375.079 "/>
</g>
</g>
</svg>
