<?xml version="1.0" encoding="UTF-8" standalone="no"?>
<!DOCTYPE svg PUBLIC "-//W3C//DTD SVG 1.1//EN"
 "http://www.w3.org/Graphics/SVG/1.1/DTD/svg11.dtd">
<!-- Generated by graphviz version 2.34.0 (20131023.0135)
 -->
<!-- Title: controllers_diagram Pages: 1 -->
<svg width="680pt" height="673pt"
 viewBox="0.00 0.00 680.00 672.62" xmlns="http://www.w3.org/2000/svg" xmlns:xlink="http://www.w3.org/1999/xlink">
<g id="graph0" class="graph" transform="scale(1 1) rotate(0) translate(4 668.623)">
<title>controllers_diagram</title>
<polygon fill="white" stroke="white" points="-4,4 -4,-668.623 676,-668.623 676,4 -4,4"/>
<!-- _diagram_info -->
<g id="node1" class="node"><title>_diagram_info</title>
<text text-anchor="start" x="416" y="-114.6" font-family="Times,serif" font-size="13.00">Controllers diagram</text>
<text text-anchor="start" x="416" y="-100.6" font-family="Times,serif" font-size="13.00">Date: Nov 12 2013 &#45; 18:26</text>
<text text-anchor="start" x="416" y="-86.6" font-family="Times,serif" font-size="13.00">Migration version: 20131016013344</text>
<text text-anchor="start" x="416" y="-72.6" font-family="Times,serif" font-size="13.00">Generated by RailRoady 1.1.1</text>
<text text-anchor="start" x="416" y="-58.6" font-family="Times,serif" font-size="13.00">http://railroady.prestonlee.com</text>
</g>
<!-- PositionsController -->
<g id="node2" class="node"><title>PositionsController</title>
<path fill="none" stroke="black" d="M12,-207.991C12,-207.991 147,-207.991 147,-207.991 153,-207.991 159,-213.991 159,-219.991 159,-219.991 159,-408.991 159,-408.991 159,-414.991 153,-420.991 147,-420.991 147,-420.991 12,-420.991 12,-420.991 6,-420.991 0,-414.991 0,-408.991 0,-408.991 0,-219.991 0,-219.991 0,-213.991 6,-207.991 12,-207.991"/>
<text text-anchor="middle" x="79.5" y="-405.791" font-family="Times,serif" font-size="14.00">PositionsController</text>
<polyline fill="none" stroke="black" points="0,-397.991 159,-397.991 "/>
<text text-anchor="start" x="8" y="-382.791" font-family="Times,serif" font-size="14.00">create</text>
<text text-anchor="start" x="8" y="-367.791" font-family="Times,serif" font-size="14.00">destroy</text>
<text text-anchor="start" x="8" y="-352.791" font-family="Times,serif" font-size="14.00">edit</text>
<text text-anchor="start" x="8" y="-337.791" font-family="Times,serif" font-size="14.00">index</text>
<text text-anchor="start" x="8" y="-322.791" font-family="Times,serif" font-size="14.00">new</text>
<text text-anchor="start" x="8" y="-307.791" font-family="Times,serif" font-size="14.00">show</text>
<text text-anchor="start" x="8" y="-292.791" font-family="Times,serif" font-size="14.00">update</text>
<polyline fill="none" stroke="black" points="0,-284.991 159,-284.991 "/>
<polyline fill="none" stroke="black" points="0,-260.991 159,-260.991 "/>
<text text-anchor="start" x="8" y="-245.791" font-family="Times,serif" font-size="14.00">_layout</text>
<text text-anchor="start" x="8" y="-230.791" font-family="Times,serif" font-size="14.00">position_params</text>
<text text-anchor="start" x="8" y="-215.791" font-family="Times,serif" font-size="14.00">set_position</text>
</g>
<!-- SessionsController -->
<g id="node3" class="node"><title>SessionsController</title>
<path fill="none" stroke="black" d="M454.396,-173.07C454.396,-173.07 582.396,-173.07 582.396,-173.07 588.396,-173.07 594.396,-179.07 594.396,-185.07 594.396,-185.07 594.396,-284.07 594.396,-284.07 594.396,-290.07 588.396,-296.07 582.396,-296.07 582.396,-296.07 454.396,-296.07 454.396,-296.07 448.396,-296.07 442.396,-290.07 442.396,-284.07 442.396,-284.07 442.396,-185.07 442.396,-185.07 442.396,-179.07 448.396,-173.07 454.396,-173.07"/>
<text text-anchor="middle" x="518.396" y="-280.87" font-family="Times,serif" font-size="14.00">SessionsController</text>
<polyline fill="none" stroke="black" points="442.396,-273.07 594.396,-273.07 "/>
<text text-anchor="start" x="450.396" y="-257.87" font-family="Times,serif" font-size="14.00">create</text>
<text text-anchor="start" x="450.396" y="-242.87" font-family="Times,serif" font-size="14.00">destroy</text>
<text text-anchor="start" x="450.396" y="-227.87" font-family="Times,serif" font-size="14.00">new</text>
<polyline fill="none" stroke="black" points="442.396,-220.07 594.396,-220.07 "/>
<polyline fill="none" stroke="black" points="442.396,-196.07 594.396,-196.07 "/>
<text text-anchor="start" x="450.396" y="-180.87" font-family="Times,serif" font-size="14.00">_layout</text>
</g>
<!-- FarmersController -->
<g id="node4" class="node"><title>FarmersController</title>
<path fill="none" stroke="black" d="M211.091,-0.5C211.091,-0.5 331.091,-0.5 331.091,-0.5 337.091,-0.5 343.091,-6.5 343.091,-12.5 343.091,-12.5 343.091,-216.5 343.091,-216.5 343.091,-222.5 337.091,-228.5 331.091,-228.5 331.091,-228.5 211.091,-228.5 211.091,-228.5 205.091,-228.5 199.091,-222.5 199.091,-216.5 199.091,-216.5 199.091,-12.5 199.091,-12.5 199.091,-6.5 205.091,-0.5 211.091,-0.5"/>
<text text-anchor="middle" x="271.091" y="-213.3" font-family="Times,serif" font-size="14.00">FarmersController</text>
<polyline fill="none" stroke="black" points="199.091,-205.5 343.091,-205.5 "/>
<text text-anchor="start" x="207.091" y="-190.3" font-family="Times,serif" font-size="14.00">create</text>
<text text-anchor="start" x="207.091" y="-175.3" font-family="Times,serif" font-size="14.00">destroy</text>
<text text-anchor="start" x="207.091" y="-160.3" font-family="Times,serif" font-size="14.00">edit</text>
<text text-anchor="start" x="207.091" y="-145.3" font-family="Times,serif" font-size="14.00">index</text>
<text text-anchor="start" x="207.091" y="-130.3" font-family="Times,serif" font-size="14.00">new</text>
<text text-anchor="start" x="207.091" y="-115.3" font-family="Times,serif" font-size="14.00">show</text>
<text text-anchor="start" x="207.091" y="-100.3" font-family="Times,serif" font-size="14.00">update</text>
<polyline fill="none" stroke="black" points="199.091,-92.5 343.091,-92.5 "/>
<polyline fill="none" stroke="black" points="199.091,-68.5 343.091,-68.5 "/>
<text text-anchor="start" x="207.091" y="-53.3" font-family="Times,serif" font-size="14.00">_layout</text>
<text text-anchor="start" x="207.091" y="-38.3" font-family="Times,serif" font-size="14.00">correct_farmer</text>
<text text-anchor="start" x="207.091" y="-23.3" font-family="Times,serif" font-size="14.00">farmer_params</text>
<text text-anchor="start" x="207.091" y="-8.3" font-family="Times,serif" font-size="14.00">set_farmer</text>
</g>
<!-- SheepController -->
<g id="node5" class="node"><title>SheepController</title>
<path fill="none" stroke="black" d="M160.02,-451.123C160.02,-451.123 265.02,-451.123 265.02,-451.123 271.02,-451.123 277.02,-457.123 277.02,-463.123 277.02,-463.123 277.02,-652.123 277.02,-652.123 277.02,-658.123 271.02,-664.123 265.02,-664.123 265.02,-664.123 160.02,-664.123 160.02,-664.123 154.02,-664.123 148.02,-658.123 148.02,-652.123 148.02,-652.123 148.02,-463.123 148.02,-463.123 148.02,-457.123 154.02,-451.123 160.02,-451.123"/>
<text text-anchor="middle" x="212.52" y="-648.923" font-family="Times,serif" font-size="14.00">SheepController</text>
<polyline fill="none" stroke="black" points="148.02,-641.123 277.02,-641.123 "/>
<text text-anchor="start" x="156.02" y="-625.923" font-family="Times,serif" font-size="14.00">create</text>
<text text-anchor="start" x="156.02" y="-610.923" font-family="Times,serif" font-size="14.00">destroy</text>
<text text-anchor="start" x="156.02" y="-595.923" font-family="Times,serif" font-size="14.00">edit</text>
<text text-anchor="start" x="156.02" y="-580.923" font-family="Times,serif" font-size="14.00">index</text>
<text text-anchor="start" x="156.02" y="-565.923" font-family="Times,serif" font-size="14.00">new</text>
<text text-anchor="start" x="156.02" y="-550.923" font-family="Times,serif" font-size="14.00">show</text>
<text text-anchor="start" x="156.02" y="-535.923" font-family="Times,serif" font-size="14.00">update</text>
<polyline fill="none" stroke="black" points="148.02,-528.123 277.02,-528.123 "/>
<polyline fill="none" stroke="black" points="148.02,-504.123 277.02,-504.123 "/>
<text text-anchor="start" x="156.02" y="-488.923" font-family="Times,serif" font-size="14.00">_layout</text>
<text text-anchor="start" x="156.02" y="-473.923" font-family="Times,serif" font-size="14.00">set_sheep</text>
<text text-anchor="start" x="156.02" y="-458.923" font-family="Times,serif" font-size="14.00">sheep_params</text>
</g>
<!-- MedicalsController -->
<g id="node6" class="node"><title>MedicalsController</title>
<path fill="none" stroke="black" d="M418.629,-399.306C418.629,-399.306 546.629,-399.306 546.629,-399.306 552.629,-399.306 558.629,-405.306 558.629,-411.306 558.629,-411.306 558.629,-600.306 558.629,-600.306 558.629,-606.306 552.629,-612.306 546.629,-612.306 546.629,-612.306 418.629,-612.306 418.629,-612.306 412.629,-612.306 406.629,-606.306 406.629,-600.306 406.629,-600.306 406.629,-411.306 406.629,-411.306 406.629,-405.306 412.629,-399.306 418.629,-399.306"/>
<text text-anchor="middle" x="482.629" y="-597.106" font-family="Times,serif" font-size="14.00">MedicalsController</text>
<polyline fill="none" stroke="black" points="406.629,-589.306 558.629,-589.306 "/>
<text text-anchor="start" x="414.629" y="-574.106" font-family="Times,serif" font-size="14.00">create</text>
<text text-anchor="start" x="414.629" y="-559.106" font-family="Times,serif" font-size="14.00">destroy</text>
<text text-anchor="start" x="414.629" y="-544.106" font-family="Times,serif" font-size="14.00">edit</text>
<text text-anchor="start" x="414.629" y="-529.106" font-family="Times,serif" font-size="14.00">index</text>
<text text-anchor="start" x="414.629" y="-514.106" font-family="Times,serif" font-size="14.00">new</text>
<text text-anchor="start" x="414.629" y="-499.106" font-family="Times,serif" font-size="14.00">show</text>
<text text-anchor="start" x="414.629" y="-484.106" font-family="Times,serif" font-size="14.00">update</text>
<polyline fill="none" stroke="black" points="406.629,-476.306 558.629,-476.306 "/>
<polyline fill="none" stroke="black" points="406.629,-452.306 558.629,-452.306 "/>
<text text-anchor="start" x="414.629" y="-437.106" font-family="Times,serif" font-size="14.00">_layout</text>
<text text-anchor="start" x="414.629" y="-422.106" font-family="Times,serif" font-size="14.00">medical_params</text>
<text text-anchor="start" x="414.629" y="-407.106" font-family="Times,serif" font-size="14.00">set_medical</text>
</g>
<!-- ApplicationController -->
<g id="node7" class="node"><title>ApplicationController</title>
<path fill="none" stroke="black" d="M236.629,-298.334C236.629,-298.334 386.629,-298.334 386.629,-298.334 392.629,-298.334 398.629,-304.334 398.629,-310.334 398.629,-310.334 398.629,-380.334 398.629,-380.334 398.629,-386.334 392.629,-392.334 386.629,-392.334 386.629,-392.334 236.629,-392.334 236.629,-392.334 230.629,-392.334 224.629,-386.334 224.629,-380.334 224.629,-380.334 224.629,-310.334 224.629,-310.334 224.629,-304.334 230.629,-298.334 236.629,-298.334"/>
<text text-anchor="middle" x="311.629" y="-377.134" font-family="Times,serif" font-size="14.00">ApplicationController</text>
<polyline fill="none" stroke="black" points="224.629,-369.334 398.629,-369.334 "/>
<polyline fill="none" stroke="black" points="224.629,-345.334 398.629,-345.334 "/>
<polyline fill="none" stroke="black" points="224.629,-321.334 398.629,-321.334 "/>
<text text-anchor="start" x="232.629" y="-306.134" font-family="Times,serif" font-size="14.00">_layout</text>
</g>
<!-- ApplicationController&#45;&gt;PositionsController -->
<g id="edge1" class="edge"><title>ApplicationController&#45;&gt;PositionsController</title>
<path fill="none" stroke="black" d="M224.532,-333.762C204.726,-331.13 183.718,-328.339 164.022,-325.722"/>
<polyline fill="none" stroke="black" points="159.044,-325.061 164.001,-325.719 "/>
</g>
<!-- ApplicationController&#45;&gt;SessionsController -->
<g id="edge2" class="edge"><title>ApplicationController&#45;&gt;SessionsController</title>
<path fill="none" stroke="black" d="M398.717,-298.681C411.594,-291.783 424.817,-284.7 437.559,-277.874"/>
<polyline fill="none" stroke="black" points="442.23,-275.371 437.823,-277.732 "/>
</g>
<!-- ApplicationController&#45;&gt;FarmersController -->
<g id="edge3" class="edge"><title>ApplicationController&#45;&gt;FarmersController</title>
<path fill="none" stroke="black" d="M303.327,-298.065C300.032,-279.303 296.08,-256.798 292.09,-234.077"/>
<polyline fill="none" stroke="black" points="291.185,-228.92 292.049,-233.845 "/>
</g>
<!-- ApplicationController&#45;&gt;SheepController -->
<g id="edge4" class="edge"><title>ApplicationController&#45;&gt;SheepController</title>
<path fill="none" stroke="black" d="M289.633,-392.448C282.168,-408.439 273.479,-427.05 264.681,-445.896"/>
<polyline fill="none" stroke="black" points="262.442,-450.692 264.557,-446.161 "/>
</g>
<!-- ApplicationController&#45;&gt;MedicalsController -->
<g id="edge5" class="edge"><title>ApplicationController&#45;&gt;MedicalsController</title>
<path fill="none" stroke="black" d="M362.009,-392.613C374.797,-404.613 388.852,-417.803 402.712,-430.809"/>
<polyline fill="none" stroke="black" points="406.614,-434.472 402.968,-431.05 "/>
</g>
</g>
</svg>
