<?xml version="1.0" encoding="UTF-8" standalone="no"?>
<!DOCTYPE svg PUBLIC "-//W3C//DTD SVG 1.1//EN"
 "http://www.w3.org/Graphics/SVG/1.1/DTD/svg11.dtd">
<!-- Generated by graphviz version 2.34.0 (20131023.0135)
 -->
<!-- Title: models_diagram Pages: 1 -->
<svg width="519pt" height="302pt"
 viewBox="0.00 0.00 519.00 302.00" xmlns="http://www.w3.org/2000/svg" xmlns:xlink="http://www.w3.org/1999/xlink">
<g id="graph0" class="graph" transform="scale(1 1) rotate(0) translate(4 298)">
<title>models_diagram</title>
<polygon fill="white" stroke="white" points="-4,4 -4,-298 515,-298 515,4 -4,4"/>
<!-- _diagram_info -->
<g id="node1" class="node"><title>_diagram_info</title>
<text text-anchor="start" x="8" y="-279.6" font-family="Times,serif" font-size="13.00">Models diagram</text>
<text text-anchor="start" x="8" y="-265.6" font-family="Times,serif" font-size="13.00">Date: Nov 12 2013 &#45; 18:26</text>
<text text-anchor="start" x="8" y="-251.6" font-family="Times,serif" font-size="13.00">Migration version: 20131016013344</text>
<text text-anchor="start" x="8" y="-237.6" font-family="Times,serif" font-size="13.00">Generated by RailRoady 1.1.1</text>
<text text-anchor="start" x="8" y="-223.6" font-family="Times,serif" font-size="13.00">http://railroady.prestonlee.com</text>
</g>
<!-- Sheep -->
<g id="node2" class="node"><title>Sheep</title>
<ellipse fill="none" stroke="black" cx="393" cy="-90" rx="35.1455" ry="18"/>
<text text-anchor="middle" x="393" y="-86.3" font-family="Times,serif" font-size="14.00">Sheep</text>
</g>
<!-- Position -->
<g id="node3" class="node"><title>Position</title>
<ellipse fill="none" stroke="black" cx="339" cy="-18" rx="50.0684" ry="18"/>
<text text-anchor="middle" x="339" y="-14.3" font-family="Times,serif" font-size="14.00">Position</text>
</g>
<!-- Sheep&#45;&gt;Position -->
<g id="edge1" class="edge"><title>Sheep&#45;&gt;Position</title>
<path fill="none" stroke="#b0dcb5" d="M375.65,-66.5087C370.12,-59.3406 363.969,-51.3666 358.309,-44.0303"/>
<ellipse fill="none" stroke="#b0dcb5" cx="378.303" cy="-69.9488" rx="4.00002" ry="4.00002"/>
<polygon fill="#b0dcb5" stroke="#b0dcb5" points="358.066,-43.7152 355.521,-33.0487 355.012,-39.7563 351.958,-35.7973 351.958,-35.7973 351.958,-35.7973 355.012,-39.7563 348.395,-38.546 358.066,-43.7152 358.066,-43.7152"/>
</g>
<!-- Medical -->
<g id="node4" class="node"><title>Medical</title>
<ellipse fill="none" stroke="black" cx="467" cy="-18" rx="44.271" ry="18"/>
<text text-anchor="middle" x="467" y="-14.3" font-family="Times,serif" font-size="14.00">Medical</text>
</g>
<!-- Sheep&#45;&gt;Medical -->
<g id="edge2" class="edge"><title>Sheep&#45;&gt;Medical</title>
<path fill="none" stroke="#548da6" d="M415.051,-68.1406C423.762,-59.901 433.801,-50.4045 442.718,-41.9694"/>
<ellipse fill="none" stroke="#548da6" cx="411.963" cy="-71.0622" rx="4.00002" ry="4.00002"/>
<polygon fill="#548da6" stroke="#548da6" points="442.939,-41.7602 453.296,-38.1573 446.572,-38.3242 450.204,-34.8882 450.204,-34.8882 450.204,-34.8882 446.572,-38.3242 447.112,-31.6191 442.939,-41.7602 442.939,-41.7602"/>
</g>
<!-- Farmer -->
<g id="node5" class="node"><title>Farmer</title>
<ellipse fill="none" stroke="black" cx="415" cy="-162" rx="39.9464" ry="18"/>
<text text-anchor="middle" x="415" y="-158.3" font-family="Times,serif" font-size="14.00">Farmer</text>
</g>
<!-- Farmer&#45;&gt;Sheep -->
<g id="edge6" class="edge"><title>Farmer&#45;&gt;Sheep</title>
<path fill="none" stroke="#7d9e5e" d="M407.227,-136.267C405.364,-130.34 403.366,-123.981 401.473,-117.959"/>
<ellipse fill="none" stroke="#7d9e5e" cx="408.475" cy="-140.239" rx="4.00001" ry="4.00001"/>
<polygon fill="#7d9e5e" stroke="#7d9e5e" points="401.428,-117.815 402.722,-106.926 399.929,-113.045 398.429,-108.275 398.429,-108.275 398.429,-108.275 399.929,-113.045 394.136,-109.625 401.428,-117.815 401.428,-117.815"/>
</g>
<!-- ActiveRecord::Base -->
<g id="node6" class="node"><title>ActiveRecord::Base</title>
<ellipse fill="none" stroke="black" cx="381" cy="-255" rx="98.1881" ry="18"/>
<text text-anchor="middle" x="381" y="-251.3" font-family="Times,serif" font-size="14.00">ActiveRecord::Base</text>
</g>
<!-- ActiveRecord::Base&#45;&gt;Sheep -->
<g id="edge3" class="edge"><title>ActiveRecord::Base&#45;&gt;Sheep</title>
<path fill="none" stroke="black" d="M374.838,-237.034C367.804,-215.259 358.217,-176.423 366,-144 368.693,-132.782 374.177,-121.261 379.504,-111.839"/>
<polyline fill="none" stroke="black" points="382.094,-107.392 379.577,-111.713 "/>
</g>
<!-- ActiveRecord::Base&#45;&gt;Position -->
<g id="edge4" class="edge"><title>ActiveRecord::Base&#45;&gt;Position</title>
<path fill="none" stroke="black" d="M375.097,-236.847C370.172,-221.971 363.288,-199.779 359,-180 348.394,-131.08 342.875,-72.4905 340.492,-41.2333"/>
<polyline fill="none" stroke="black" points="340.109,-36.0901 340.48,-41.0763 "/>
</g>
<!-- ActiveRecord::Base&#45;&gt;Medical -->
<g id="edge5" class="edge"><title>ActiveRecord::Base&#45;&gt;Medical</title>
<path fill="none" stroke="black" d="M409.32,-237.592C428.612,-224.672 452.637,-204.735 464,-180 484.961,-134.373 477.987,-73.5186 471.957,-41.2637"/>
<polyline fill="none" stroke="black" points="470.926,-35.9613 471.881,-40.8694 "/>
</g>
<!-- ActiveRecord::Base&#45;&gt;Farmer -->
<g id="edge7" class="edge"><title>ActiveRecord::Base&#45;&gt;Farmer</title>
<path fill="none" stroke="black" d="M387.395,-236.884C392.904,-222.139 400.886,-200.775 406.852,-184.808"/>
<polyline fill="none" stroke="black" points="408.634,-180.04 406.883,-184.723 "/>
</g>
</g>
</svg>
