<?xml version="1.0" encoding="UTF-8" standalone="no"?>
<!DOCTYPE svg PUBLIC "-//W3C//DTD SVG 1.1//EN"
 "http://www.w3.org/Graphics/SVG/1.1/DTD/svg11.dtd">
<!-- Generated by graphviz version 2.34.0 (20131023.0135)
 -->
<!-- Title: models_diagram Pages: 1 -->
<svg width="631pt" height="608pt"
 viewBox="0.00 0.00 631.00 608.00" xmlns="http://www.w3.org/2000/svg" xmlns:xlink="http://www.w3.org/1999/xlink">
<g id="graph0" class="graph" transform="scale(1 1) rotate(0) translate(4 604)">
<title>models_diagram</title>
<polygon fill="white" stroke="white" points="-4,4 -4,-604 627,-604 627,4 -4,4"/>
<!-- _diagram_info -->
<g id="node1" class="node"><title>_diagram_info</title>
<text text-anchor="start" x="8" y="-585.6" font-family="Times,serif" font-size="13.00">Models diagram</text>
<text text-anchor="start" x="8" y="-571.6" font-family="Times,serif" font-size="13.00">Date: Nov 12 2013 &#45; 18:26</text>
<text text-anchor="start" x="8" y="-557.6" font-family="Times,serif" font-size="13.00">Migration version: 20131016013344</text>
<text text-anchor="start" x="8" y="-543.6" font-family="Times,serif" font-size="13.00">Generated by RailRoady 1.1.1</text>
<text text-anchor="start" x="8" y="-529.6" font-family="Times,serif" font-size="13.00">http://railroady.prestonlee.com</text>
</g>
<!-- Sheep -->
<g id="node2" class="node"><title>Sheep</title>
<path fill="none" stroke="black" d="M345.5,-175C345.5,-175 488.5,-175 488.5,-175 494.5,-175 500.5,-181 500.5,-187 500.5,-187 500.5,-269 500.5,-269 500.5,-275 494.5,-281 488.5,-281 488.5,-281 345.5,-281 345.5,-281 339.5,-281 333.5,-275 333.5,-269 333.5,-269 333.5,-187 333.5,-187 333.5,-181 339.5,-175 345.5,-175"/>
<text text-anchor="middle" x="417" y="-265.8" font-family="Times,serif" font-size="14.00">Sheep</text>
<polyline fill="none" stroke="black" points="333.5,-258 500.5,-258 "/>
<text text-anchor="start" x="341.5" y="-242.8" font-family="Times,serif" font-size="14.00">id :integer</text>
<text text-anchor="start" x="341.5" y="-227.8" font-family="Times,serif" font-size="14.00">serial :integer</text>
<text text-anchor="start" x="341.5" y="-212.8" font-family="Times,serif" font-size="14.00">created_at :datetime</text>
<text text-anchor="start" x="341.5" y="-197.8" font-family="Times,serif" font-size="14.00">updated_at :datetime</text>
<text text-anchor="start" x="341.5" y="-182.8" font-family="Times,serif" font-size="14.00">farmer_id :integer</text>
</g>
<!-- Position -->
<g id="node3" class="node"><title>Position</title>
<path fill="none" stroke="black" d="M258.5,-1C258.5,-1 401.5,-1 401.5,-1 407.5,-1 413.5,-7 413.5,-13 413.5,-13 413.5,-125 413.5,-125 413.5,-131 407.5,-137 401.5,-137 401.5,-137 258.5,-137 258.5,-137 252.5,-137 246.5,-131 246.5,-125 246.5,-125 246.5,-13 246.5,-13 246.5,-7 252.5,-1 258.5,-1"/>
<text text-anchor="middle" x="330" y="-121.8" font-family="Times,serif" font-size="14.00">Position</text>
<polyline fill="none" stroke="black" points="246.5,-114 413.5,-114 "/>
<text text-anchor="start" x="254.5" y="-98.8" font-family="Times,serif" font-size="14.00">id :integer</text>
<text text-anchor="start" x="254.5" y="-83.8" font-family="Times,serif" font-size="14.00">latitude :float</text>
<text text-anchor="start" x="254.5" y="-68.8" font-family="Times,serif" font-size="14.00">longitude :float</text>
<text text-anchor="start" x="254.5" y="-53.8" font-family="Times,serif" font-size="14.00">attacked :boolean</text>
<text text-anchor="start" x="254.5" y="-38.8" font-family="Times,serif" font-size="14.00">created_at :datetime</text>
<text text-anchor="start" x="254.5" y="-23.8" font-family="Times,serif" font-size="14.00">updated_at :datetime</text>
<text text-anchor="start" x="254.5" y="-8.8" font-family="Times,serif" font-size="14.00">sheep_id :integer</text>
</g>
<!-- Sheep&#45;&gt;Position -->
<g id="edge1" class="edge"><title>Sheep&#45;&gt;Position</title>
<path fill="none" stroke="#9db2e9" d="M384.067,-167.569C380.193,-160.578 376.2,-153.373 372.222,-146.194"/>
<ellipse fill="none" stroke="#9db2e9" cx="386.091" cy="-171.223" rx="4.00002" ry="4.00002"/>
<polygon fill="#9db2e9" stroke="#9db2e9" points="372.047,-145.879 371.137,-134.951 369.624,-141.505 367.2,-137.132 367.2,-137.132 367.2,-137.132 369.624,-141.505 363.264,-139.313 372.047,-145.879 372.047,-145.879"/>
</g>
<!-- Medical -->
<g id="node4" class="node"><title>Medical</title>
<path fill="none" stroke="black" d="M468.5,-1C468.5,-1 611.5,-1 611.5,-1 617.5,-1 623.5,-7 623.5,-13 623.5,-13 623.5,-125 623.5,-125 623.5,-131 617.5,-137 611.5,-137 611.5,-137 468.5,-137 468.5,-137 462.5,-137 456.5,-131 456.5,-125 456.5,-125 456.5,-13 456.5,-13 456.5,-7 462.5,-1 468.5,-1"/>
<text text-anchor="middle" x="540" y="-121.8" font-family="Times,serif" font-size="14.00">Medical</text>
<polyline fill="none" stroke="black" points="456.5,-114 623.5,-114 "/>
<text text-anchor="start" x="464.5" y="-98.8" font-family="Times,serif" font-size="14.00">id :integer</text>
<text text-anchor="start" x="464.5" y="-83.8" font-family="Times,serif" font-size="14.00">datetime :datetime</text>
<text text-anchor="start" x="464.5" y="-68.8" font-family="Times,serif" font-size="14.00">weight :integer</text>
<text text-anchor="start" x="464.5" y="-53.8" font-family="Times,serif" font-size="14.00">notes :string</text>
<text text-anchor="start" x="464.5" y="-38.8" font-family="Times,serif" font-size="14.00">created_at :datetime</text>
<text text-anchor="start" x="464.5" y="-23.8" font-family="Times,serif" font-size="14.00">updated_at :datetime</text>
<text text-anchor="start" x="464.5" y="-8.8" font-family="Times,serif" font-size="14.00">sheep_id :integer</text>
</g>
<!-- Sheep&#45;&gt;Medical -->
<g id="edge2" class="edge"><title>Sheep&#45;&gt;Medical</title>
<path fill="none" stroke="#ea835b" d="M463.107,-168.147C468.928,-160.717 474.946,-153.036 480.933,-145.395"/>
<ellipse fill="none" stroke="#ea835b" cx="460.424" cy="-171.573" rx="4.00002" ry="4.00002"/>
<polygon fill="#ea835b" stroke="#ea835b" points="481.239,-145.004 490.949,-139.907 484.323,-141.068 487.406,-137.132 487.406,-137.132 487.406,-137.132 484.323,-141.068 483.864,-134.357 481.239,-145.004 481.239,-145.004"/>
</g>
<!-- Farmer -->
<g id="node5" class="node"><title>Farmer</title>
<path fill="none" stroke="black" d="M359.5,-319C359.5,-319 524.5,-319 524.5,-319 530.5,-319 536.5,-325 536.5,-331 536.5,-331 536.5,-473 536.5,-473 536.5,-479 530.5,-485 524.5,-485 524.5,-485 359.5,-485 359.5,-485 353.5,-485 347.5,-479 347.5,-473 347.5,-473 347.5,-331 347.5,-331 347.5,-325 353.5,-319 359.5,-319"/>
<text text-anchor="middle" x="442" y="-469.8" font-family="Times,serif" font-size="14.00">Farmer</text>
<polyline fill="none" stroke="black" points="347.5,-462 536.5,-462 "/>
<text text-anchor="start" x="355.5" y="-446.8" font-family="Times,serif" font-size="14.00">id :integer</text>
<text text-anchor="start" x="355.5" y="-431.8" font-family="Times,serif" font-size="14.00">email :string</text>
<text text-anchor="start" x="355.5" y="-416.8" font-family="Times,serif" font-size="14.00">name :string</text>
<text text-anchor="start" x="355.5" y="-401.8" font-family="Times,serif" font-size="14.00">password_digest :string</text>
<text text-anchor="start" x="355.5" y="-386.8" font-family="Times,serif" font-size="14.00">phone :string</text>
<text text-anchor="start" x="355.5" y="-371.8" font-family="Times,serif" font-size="14.00">created_at :datetime</text>
<text text-anchor="start" x="355.5" y="-356.8" font-family="Times,serif" font-size="14.00">updated_at :datetime</text>
<text text-anchor="start" x="355.5" y="-341.8" font-family="Times,serif" font-size="14.00">backup :string</text>
<text text-anchor="start" x="355.5" y="-326.8" font-family="Times,serif" font-size="14.00">remember_token :string</text>
</g>
<!-- Farmer&#45;&gt;Sheep -->
<g id="edge6" class="edge"><title>Farmer&#45;&gt;Sheep</title>
<path fill="none" stroke="#dce6c7" d="M428.873,-310.685C427.934,-304.225 427,-297.797 426.091,-291.549"/>
<ellipse fill="none" stroke="#dce6c7" cx="429.474" cy="-314.82" rx="4.00001" ry="4.00001"/>
<polygon fill="#dce6c7" stroke="#dce6c7" points="426.03,-291.124 429.044,-280.58 425.31,-286.176 424.591,-281.228 424.591,-281.228 424.591,-281.228 425.31,-286.176 420.138,-281.875 426.03,-291.124 426.03,-291.124"/>
</g>
<!-- ActiveRecord::Base -->
<g id="node6" class="node"><title>ActiveRecord::Base</title>
<ellipse fill="none" stroke="black" cx="381" cy="-561" rx="98.1881" ry="18"/>
<text text-anchor="middle" x="381" y="-557.3" font-family="Times,serif" font-size="14.00">ActiveRecord::Base</text>
</g>
<!-- ActiveRecord::Base&#45;&gt;Sheep -->
<g id="edge3" class="edge"><title>ActiveRecord::Base&#45;&gt;Sheep</title>
<path fill="none" stroke="black" d="M367.553,-542.939C357.199,-528.649 343.721,-507.234 338,-486 318.574,-413.905 311.489,-387.802 338,-318 342.404,-306.405 349.086,-295.355 356.737,-285.23"/>
<polyline fill="none" stroke="black" points="359.831,-281.248 356.763,-285.196 "/>
</g>
<!-- ActiveRecord::Base&#45;&gt;Position -->
<g id="edge4" class="edge"><title>ActiveRecord::Base&#45;&gt;Position</title>
<path fill="none" stroke="black" d="M360.186,-543.345C344.987,-529.755 325.596,-509.08 317,-486 274.469,-371.808 293.614,-227.539 311.634,-142.374"/>
<polyline fill="none" stroke="black" points="312.709,-137.356 311.661,-142.245 "/>
</g>
<!-- ActiveRecord::Base&#45;&gt;Medical -->
<g id="edge5" class="edge"><title>ActiveRecord::Base&#45;&gt;Medical</title>
<path fill="none" stroke="black" d="M448.402,-547.71C483.584,-537.505 523.647,-519.062 545,-486 612.208,-381.941 587.12,-230.596 563.238,-142.028"/>
<polyline fill="none" stroke="black" points="561.885,-137.073 563.202,-141.897 "/>
</g>
<!-- ActiveRecord::Base&#45;&gt;Farmer -->
<g id="edge7" class="edge"><title>ActiveRecord::Base&#45;&gt;Farmer</title>
<path fill="none" stroke="black" d="M387.644,-542.899C392.79,-529.656 400.344,-510.213 408.194,-490.01"/>
<polyline fill="none" stroke="black" points="410.086,-485.139 408.275,-489.8 "/>
</g>
</g>
</svg>
